<svg width="1100" height="430" viewBox="0 0 1100 430" fill="none" xmlns="http://www.w3.org/2000/svg" role="img" aria-labelledby="title desc" style="font-family:'Segoe UI','Helvetica Neue',Arial,sans-serif;">
  <title id="title">Haritha main character build card</title>
  <desc id="desc">A custom profile panel showing Haritha's frontend style, backend discipline, and automation-focused developer vibe.</desc>
  <defs>
    <linearGradient id="bg" x1="38" y1="28" x2="1056" y2="402" gradientUnits="userSpaceOnUse">
      <stop stop-color="#091120" />
      <stop offset="0.5" stop-color="#0F172A" />
      <stop offset="1" stop-color="#140B23" />
    </linearGradient>
    <linearGradient id="accentLine" x1="62" y1="242" x2="1036" y2="242" gradientUnits="userSpaceOnUse">
      <stop stop-color="#2563EB" />
      <stop offset="0.34" stop-color="#38BDF8" />
      <stop offset="0.68" stop-color="#EC4899" />
      <stop offset="1" stop-color="#F97316" />
    </linearGradient>
  </defs>

  <rect x="10" y="10" width="1080" height="410" rx="30" fill="url(#bg)" stroke="#1E293B" />
  <circle cx="962" cy="92" r="92" fill="#2563EB" opacity="0.08" />
  <circle cx="854" cy="312" r="118" fill="#EC4899" opacity="0.07" />
  <circle cx="166" cy="354" r="96" fill="#F97316" opacity="0.06" />
  <path d="M38 298C184 258 336 358 482 322C618 288 756 166 1064 206V420H38V298Z" fill="#0A1224" opacity="0.75" />

  <rect x="42" y="34" width="226" height="34" rx="17" fill="#101C33" stroke="#22304A" />
  <text x="64" y="55" font-size="12" font-weight="700" fill="#60A5FA" letter-spacing="1.3">MAIN CHARACTER BUILD</text>

  <rect x="876" y="34" width="162" height="34" rx="17" fill="#101C33" stroke="#22304A" />
  <text x="957" y="55" text-anchor="middle" font-size="12" font-weight="700" fill="#E2E8F0" letter-spacing="0.8">shipping &gt; yapping</text>

  <text x="42" y="118" font-size="52" font-weight="800" fill="#F8FAFC">frontend taste.</text>
  <text x="42" y="172" font-size="52" font-weight="800" fill="#F8FAFC">backend discipline.</text>
  <text x="42" y="208" font-size="16" fill="#94A3B8">clean UI in the browser. calm logic behind it. automation whenever repetition starts getting annoying.</text>

  <rect x="42" y="232" width="1000" height="8" rx="4" fill="#10192C" />
  <rect x="42" y="232" width="1000" height="8" rx="4" fill="url(#accentLine)" />

  <rect x="42" y="268" width="458" height="112" rx="26" fill="#0F182B" stroke="#1E293B" />
  <text x="68" y="300" font-size="12" font-weight="700" fill="#64748B" letter-spacing="1.2">CURRENT PATCH</text>

  <rect x="68" y="318" width="150" height="32" rx="16" fill="#111F38" />
  <text x="143" y="339" text-anchor="middle" font-size="13" font-weight="700" fill="#60A5FA">ui that feels premium</text>

  <rect x="230" y="318" width="142" height="32" rx="16" fill="#111F38" />
  <text x="301" y="339" text-anchor="middle" font-size="13" font-weight="700" fill="#EC4899">backend that behaves</text>

  <rect x="384" y="318" width="88" height="32" rx="16" fill="#111F38" />
  <text x="428" y="339" text-anchor="middle" font-size="13" font-weight="700" fill="#F97316">automation brain</text>

  <text x="68" y="370" font-size="15" fill="#CBD5E1">building things that look sharp, work properly, and make future-me's life easier.</text>

  <rect x="530" y="104" width="512" height="126" rx="26" fill="#0F182B" stroke="#1E293B" />
  <text x="556" y="136" font-size="12" font-weight="700" fill="#64748B" letter-spacing="1.2">OPEN TABS RN</text>

  <rect x="556" y="154" width="460" height="24" rx="12" fill="#111F38" />
  <text x="578" y="171" font-size="14" font-weight="700" fill="#60A5FA">tab_01</text>
  <text x="654" y="171" font-size="14" fill="#E2E8F0">making interfaces feel polished instead of default</text>

  <rect x="556" y="186" width="460" height="24" rx="12" fill="#111F38" />
  <text x="578" y="203" font-size="14" font-weight="700" fill="#EC4899">tab_02</text>
  <text x="654" y="203" font-size="14" fill="#E2E8F0">writing backend flows that stay calm under real usage</text>

  <rect x="556" y="218" width="460" height="24" rx="12" fill="#111F38" />
  <text x="578" y="235" font-size="14" font-weight="700" fill="#F97316">tab_03</text>
  <text x="654" y="235" font-size="14" fill="#E2E8F0">turning repetitive work into one-click energy</text>

  <rect x="566" y="270" width="214" height="98" rx="22" fill="#101C33" stroke="#22304A" />
  <text x="590" y="300" font-size="12" font-weight="700" fill="#64748B" letter-spacing="1.1">DEV SETTINGS</text>
  <text x="590" y="326" font-size="15" font-weight="700" fill="#F8FAFC">design eye: on</text>
  <text x="590" y="346" font-size="15" font-weight="700" fill="#F8FAFC">edge-case fear: low</text>
  <text x="590" y="366" font-size="15" font-weight="700" fill="#F8FAFC">boring build tolerance: zero</text>

  <rect x="798" y="270" width="244" height="98" rx="22" fill="#101C33" stroke="#22304A" />
  <text x="822" y="300" font-size="12" font-weight="700" fill="#64748B" letter-spacing="1.1">BUILD STYLE</text>
  <text x="822" y="326" font-size="28" font-weight="800" fill="#F8FAFC">looks good</text>
  <text x="822" y="352" font-size="28" font-weight="800" fill="#F8FAFC">still works</text>

  <rect x="42" y="392" width="1000" height="16" rx="8" fill="#101C33" />
  <text x="542" y="404" text-anchor="middle" font-size="12" font-weight="700" fill="#CBD5E1" letter-spacing="0.4">clean visuals. stable flows. no copy-paste energy.</text>
</svg>
