<svg width="1100" height="560" viewBox="0 0 1100 560" fill="none" xmlns="http://www.w3.org/2000/svg" role="img" aria-labelledby="title desc" style="font-family:'Segoe UI','Trebuchet MS',sans-serif;">
  <title id="title">Live GitHub profile overview for Haritha Sivasankaran</title>
  <desc id="desc">Automatically refreshed GitHub stats showing contributions, repositories, stars, language mix, and recent build tempo.</desc>
  <defs>
    <linearGradient id="hero" x1="40" y1="24" x2="1060" y2="520" gradientUnits="userSpaceOnUse">
      <stop stop-color="#0F172A" />
      <stop offset="0.5" stop-color="#111827" />
      <stop offset="1" stop-color="#050816" />
    </linearGradient>
    <linearGradient id="tempoFill" x1="0" y1="430" x2="0" y2="500" gradientUnits="userSpaceOnUse">
      <stop stop-color="#2563EB" stop-opacity="0.35" />
      <stop offset="1" stop-color="#2563EB" stop-opacity="0" />
    </linearGradient>
    <linearGradient id="tempoStroke" x1="84" y1="470" x2="1016" y2="470" gradientUnits="userSpaceOnUse">
      <stop stop-color="#38BDF8" />
      <stop offset="0.55" stop-color="#2563EB" />
      <stop offset="1" stop-color="#EC4899" />
    </linearGradient>
  </defs>

  <rect x="10" y="10" width="1080" height="540" rx="30" fill="url(#hero)" stroke="#1E293B" />
  <circle cx="986" cy="114" r="104" fill="#2563EB" opacity="0.08" />
  <circle cx="124" cy="500" r="96" fill="#F97316" opacity="0.07" />
  <circle cx="954" cy="470" r="116" fill="#EC4899" opacity="0.06" />

  <rect x="44" y="34" width="154" height="32" rx="16" fill="#0F1B33" stroke="#22304A" />
  <text x="66" y="54" font-size="12" font-weight="700" fill="#60A5FA" letter-spacing="1.2">LIVE RECEIPTS</text>
  <text x="44" y="100" font-size="34" font-weight="700" fill="#F8FAFC">live build receipts</text>
  <text x="44" y="126" font-size="15" fill="#94A3B8">real GitHub data, auto-refreshed, zero fake flex.</text>

  <rect x="856" y="34" width="180" height="32" rx="16" fill="#0F1B33" stroke="#22304A" />
  <text x="876" y="54" font-size="12" font-weight="700" fill="#E2E8F0">token sync + private</text>
  <text x="856" y="92" font-size="13" fill="#64748B">last refresh: 20 Jun 2026 | 02:32 AM</text>

  <rect x="44" y="146" width="430" height="224" rx="28" fill="#0D1526" stroke="#1E293B" />
  <text x="68" y="182" font-size="12" font-weight="700" fill="#64748B" letter-spacing="1.2">THIS YEAR</text>
  <text x="68" y="268" font-size="92" font-weight="800" fill="#F8FAFC">258</text>
  <text x="72" y="298" font-size="20" font-weight="700" fill="#CBD5E1">contributions</text>
  <text x="68" y="324" font-size="14" fill="#94A3B8">public + private activity</text>
  <text x="68" y="346" font-size="13" fill="#64748B">shipping publicly since 2021</text>
  <g>
      <rect x="256" y="188" width="92" height="56" rx="18" fill="#111B2E" />
      <rect x="268" y="200" width="6" height="30" rx="3" fill="#EC4899" />
      <text x="284" y="211" font-size="11" font-weight="600" fill="#94A3B8" letter-spacing="0.6">ACTIVE</text>
      <text x="284" y="232" font-size="24" font-weight="700" fill="#F8FAFC">27</text>
    </g><g>
      <rect x="358" y="188" width="92" height="56" rx="18" fill="#111B2E" />
      <rect x="370" y="200" width="6" height="30" rx="3" fill="#F97316" />
      <text x="386" y="211" font-size="11" font-weight="600" fill="#94A3B8" letter-spacing="0.6">REPOS</text>
      <text x="386" y="232" font-size="24" font-weight="700" fill="#F8FAFC">12</text>
    </g><g>
      <rect x="256" y="254" width="92" height="56" rx="18" fill="#111B2E" />
      <rect x="268" y="266" width="6" height="30" rx="3" fill="#7C3AED" />
      <text x="284" y="277" font-size="11" font-weight="600" fill="#94A3B8" letter-spacing="0.6">STARS</text>
      <text x="284" y="298" font-size="24" font-weight="700" fill="#F8FAFC">2</text>
    </g><g>
      <rect x="358" y="254" width="92" height="56" rx="18" fill="#111B2E" />
      <rect x="370" y="266" width="6" height="30" rx="3" fill="#38BDF8" />
      <text x="386" y="277" font-size="11" font-weight="600" fill="#94A3B8" letter-spacing="0.6">PEAK</text>
      <text x="386" y="298" font-size="24" font-weight="700" fill="#F8FAFC">32</text>
    </g>

  <rect x="500" y="146" width="556" height="224" rx="28" fill="#0D1526" stroke="#1E293B" />
  <text x="524" y="182" font-size="12" font-weight="700" fill="#64748B" letter-spacing="1.2">STACK TAPE</text>
  <text x="524" y="208" font-size="26" font-weight="700" fill="#F8FAFC">actual language mix</text>
  <text x="524" y="228" font-size="14" fill="#94A3B8">only the real repo languages make the lineup.</text>
  <rect x="524" y="246" width="476" height="14" rx="7" fill="#172033" />
<rect x="524" y="246" width="282" height="14" rx="7" fill="#F59E0B" />
<rect x="806" y="246" width="110" height="14" rx="7" fill="#F97316" />
<rect x="916" y="246" width="57" height="14" rx="7" fill="#60A5FA" />
<rect x="973" y="246" width="19" height="14" rx="7" fill="#7C3AED" />
<rect x="992" y="246" width="6" height="14" rx="7" fill="#FACC15" />
<rect x="998" y="246" width="2" height="14" rx="7" fill="#FB923C" />
<g>
              <rect x="524" y="280" width="166" height="38" rx="16" fill="#111B2E" />
              <rect x="536" y="290" width="7" height="18" rx="3" fill="#F59E0B" />
              <text x="553" y="296" font-size="10.5" font-weight="600" fill="#94A3B8">Jupyter Notebook</text>
              <text x="553" y="312" font-size="19" font-weight="700" fill="#F8FAFC">58.80%</text>
            </g>
<g>
              <rect x="702" y="280" width="166" height="38" rx="16" fill="#111B2E" />
              <rect x="714" y="290" width="7" height="18" rx="3" fill="#F97316" />
              <text x="731" y="296" font-size="10.5" font-weight="600" fill="#94A3B8">HTML</text>
              <text x="731" y="312" font-size="19" font-weight="700" fill="#F8FAFC">22.98%</text>
            </g>
<g>
              <rect x="880" y="280" width="166" height="38" rx="16" fill="#111B2E" />
              <rect x="892" y="290" width="7" height="18" rx="3" fill="#60A5FA" />
              <text x="909" y="296" font-size="10.5" font-weight="600" fill="#94A3B8">Python</text>
              <text x="909" y="312" font-size="19" font-weight="700" fill="#F8FAFC">11.92%</text>
            </g>
<g>
              <rect x="524" y="330" width="166" height="38" rx="16" fill="#111B2E" />
              <rect x="536" y="340" width="7" height="18" rx="3" fill="#7C3AED" />
              <text x="553" y="346" font-size="10.5" font-weight="600" fill="#94A3B8">CSS</text>
              <text x="553" y="362" font-size="19" font-weight="700" fill="#F8FAFC">3.97%</text>
            </g>
<g>
              <rect x="702" y="330" width="166" height="38" rx="16" fill="#111B2E" />
              <rect x="714" y="340" width="7" height="18" rx="3" fill="#FACC15" />
              <text x="731" y="346" font-size="10.5" font-weight="600" fill="#94A3B8">JavaScript</text>
              <text x="731" y="362" font-size="19" font-weight="700" fill="#F8FAFC">1.27%</text>
            </g>
<g>
              <rect x="880" y="330" width="166" height="38" rx="16" fill="#111B2E" />
              <rect x="892" y="340" width="7" height="18" rx="3" fill="#FB923C" />
              <text x="909" y="346" font-size="10.5" font-weight="600" fill="#94A3B8">Java</text>
              <text x="909" y="362" font-size="19" font-weight="700" fill="#F8FAFC">0.50%</text>
            </g>

  <rect x="44" y="390" width="1012" height="140" rx="28" fill="#0D1526" stroke="#1E293B" />
  <text x="68" y="424" font-size="12" font-weight="700" fill="#64748B" letter-spacing="1.2">BUILD TEMPO</text>
  <text x="68" y="448" font-size="24" font-weight="700" fill="#F8FAFC">recent shipping curve</text>
  <text x="68" y="468" font-size="14" fill="#94A3B8">last 12 weeks of contribution movement</text>
  <rect x="890" y="412" width="136" height="30" rx="15" fill="#111B2E" />
  <text x="958" y="432" font-size="12" font-weight="700" text-anchor="middle" fill="#E2E8F0">peak week 88</text>
  <line x1="84" y1="500" x2="1016" y2="500" stroke="#1E293B" />
<line x1="84" y1="476" x2="1016" y2="476" stroke="#142033" />
<line x1="84" y1="452" x2="1016" y2="452" stroke="#142033" />
<path d="M 84.00 500.00 84.00 498.00 L 168.73 498.00 L 253.45 492.36 L 338.18 499.45 L 422.91 498.00 L 507.64 498.00 L 592.36 498.00 L 677.09 485.82 L 761.82 452.00 L 846.55 487.45 L 931.27 471.64 L 1016.00 473.82 L 1016.00 500.00 Z" fill="url(#tempoFill)" opacity="0.9" />
<path d="M 84.00 498.00 L 168.73 498.00 L 253.45 492.36 L 338.18 499.45 L 422.91 498.00 L 507.64 498.00 L 592.36 498.00 L 677.09 485.82 L 761.82 452.00 L 846.55 487.45 L 931.27 471.64 L 1016.00 473.82" fill="none" stroke="url(#tempoStroke)" stroke-width="4" stroke-linecap="round" stroke-linejoin="round" />
<circle cx="84.00" cy="498.00" r="4.5" fill="#0F172A" stroke="#60A5FA" stroke-width="3" />
<text x="84.00" y="520" font-size="12" text-anchor="middle" fill="#64748B">Mar</text>
<circle cx="168.73" cy="498.00" r="4.5" fill="#0F172A" stroke="#60A5FA" stroke-width="3" />
<circle cx="253.45" cy="492.36" r="4.5" fill="#0F172A" stroke="#60A5FA" stroke-width="3" />
<text x="253.45" y="480.36" font-size="11" font-weight="600" text-anchor="middle" fill="#E2E8F0">14</text>
<circle cx="338.18" cy="499.45" r="4.5" fill="#0F172A" stroke="#60A5FA" stroke-width="3" />
<text x="338.18" y="487.45" font-size="11" font-weight="600" text-anchor="middle" fill="#E2E8F0">1</text>
<circle cx="422.91" cy="498.00" r="4.5" fill="#0F172A" stroke="#60A5FA" stroke-width="3" />
<text x="422.91" y="520" font-size="12" text-anchor="middle" fill="#64748B">Apr</text>
<circle cx="507.64" cy="498.00" r="4.5" fill="#0F172A" stroke="#60A5FA" stroke-width="3" />
<circle cx="592.36" cy="498.00" r="4.5" fill="#0F172A" stroke="#60A5FA" stroke-width="3" />
<circle cx="677.09" cy="485.82" r="4.5" fill="#0F172A" stroke="#60A5FA" stroke-width="3" />
<text x="677.09" y="473.82" font-size="11" font-weight="600" text-anchor="middle" fill="#E2E8F0">26</text>
<circle cx="761.82" cy="452.00" r="4.5" fill="#0F172A" stroke="#F97316" stroke-width="3" />
<text x="761.82" y="440.00" font-size="11" font-weight="600" text-anchor="middle" fill="#E2E8F0">88</text>
<text x="761.82" y="520" font-size="12" text-anchor="middle" fill="#64748B">May</text>
<circle cx="846.55" cy="487.45" r="4.5" fill="#0F172A" stroke="#60A5FA" stroke-width="3" />
<text x="846.55" y="475.45" font-size="11" font-weight="600" text-anchor="middle" fill="#E2E8F0">23</text>
<circle cx="931.27" cy="471.64" r="4.5" fill="#0F172A" stroke="#60A5FA" stroke-width="3" />
<text x="931.27" y="459.64" font-size="11" font-weight="600" text-anchor="middle" fill="#E2E8F0">52</text>
<circle cx="1016.00" cy="473.82" r="4.5" fill="#0F172A" stroke="#60A5FA" stroke-width="3" />
<text x="1016.00" y="461.82" font-size="11" font-weight="600" text-anchor="middle" fill="#E2E8F0">48</text>
<text x="1016.00" y="520" font-size="12" text-anchor="middle" fill="#64748B">Jun</text>
</svg>